PathFileType	4	(X/Y/Z)	C:/Users/opensim2020/Desktop/walking_exp_matlab/subject06_walking17_straight_04.trc																																																																																																																																					
DataRate	CameraRate	NumFrames	NumMarkers	Units	OrigDataRate	OrigDataStartFrame	OrigNumFrames																																																																																																																																	
100	100	5	45	mm	100	4445	318																																																																																																																																	
Frame#	Time	LFHD			RFHD			LBHD			RBHD			C7			T10			CLAV			STRN			RBAK			LSHO			LUPA			LELB			LFRM			LWRA			LWRB			LFIN			RSHO			RUPA			RELB			RFRM			RWRA			RWRB			RFIN			LASI			RASI			LPSI			RPSI			LTHI			LKNE			LTIB			LANK			LHEE			LTOE			RTHI			RKNE			RTIB			RANK			RHEE			RTOE			*39			*40			*41			*42			*43			*44		
		X1	Y1	Z1	X2	Y2	Z2	X3	Y3	Z3	X4	Y4	Z4	X5	Y5	Z5	X6	Y6	Z6	X7	Y7	Z7	X8	Y8	Z8	X9	Y9	Z9	X10	Y10	Z10	X11	Y11	Z11	X12	Y12	Z12	X13	Y13	Z13	X14	Y14	Z14	X15	Y15	Z15	X16	Y16	Z16	X17	Y17	Z17	X18	Y18	Z18	X19	Y19	Z19	X20	Y20	Z20	X21	Y21	Z21	X22	Y22	Z22	X23	Y23	Z23	X24	Y24	Z24	X25	Y25	Z25	X26	Y26	Z26	X27	Y27	Z27	X28	Y28	Z28	X29	Y29	Z29	X30	Y30	Z30	X31	Y31	Z31	X32	Y32	Z32	X33	Y33	Z33	X34	Y34	Z34	X35	Y35	Z35	X36	Y36	Z36	X37	Y37	Z37	X38	Y38	Z38	X39	Y39	Z39	X40	Y40	Z40	X41	Y41	Z41	X42	Y42	Z42	X43	Y43	Z43	X44	Y44	Z44	X45	Y45	Z45
																																																																																																																																								
160	1.59	-348.14444	1671.78455	-1507.33179	-347.37228	1655.9082	-1376.31738	-480.13455	1613.87561	-1507.97595	-477.96472	1603.93262	-1379.85217	-478.46399	1456.91638	-1449.85608	-517.78589	1128.94336	-1435.07336	-369.22546	1378.5835	-1456.14172	-334.18607	1202.09143	-1460.64111	-546.35028	1289.52234	-1360.55273	-438.0148	1407.4259	-1613.47766	-467.24396	1206.57349	-1684.79065	-483.7337	1095.34766	-1694.53467	-467.87479	945.21075	-1711.646	-416.53571	829.08649	-1661.47217	-475.66882	825.68152	-1702.90601	-436.50156	742.56946	-1700.70374	-402.20264	1415.59778	-1292.78259	-433.53699	1219.41821	-1197.79956	-419.90524	1098.4082	-1185.03625	-379.56329	985.47369	-1175.43372	-293.38696	866.8598	-1222.59631	-340.61624	854.06885	-1176.10474	-286.86649	789.41504	-1182.88306	-342.95508	969.43237	-1549.51794	-340.63358	970.63165	-1330.16028	-500.89551	993.25922	-1519.89905	-491.53174	997.91125	-1351.53186	-350.47903	658.73871	-1613.95105	-299.61969	503.29083	-1585.85229	-331.98871	253.0157	-1587.03955	-334.06778	79.01363	-1553.65027	-375.25491	61.45785	-1509.12183	-191.59058	52.34556	-1545.48389	-419.75391	634.66101	-1289.4187	-432.98523	509.8739	-1316.20886	-514.24237	254.49271	-1333.49609	-550.29407	73.13847	-1388.94641	-589.58258	50.83581	-1436.84351	-400.81158	37.0428	-1380.0719	-448.86075	1705.25244	-1445.69153	NaN	NaN	NaN	NaN	NaN	NaN	NaN	NaN	NaN	NaN	NaN	NaN	NaN	NaN	NaN
161	1.6	-341.10962	1670.94312	-1507.67065	-340.2388	1655.14526	-1376.61365	-473.17935	1613.09485	-1508.18359	-470.89957	1603.26428	-1379.99316	-471.34955	1456.02039	-1449.6958	-510.63495	1128.08765	-1434.64209	-362.18246	1377.80298	-1456.12634	-327.06619	1201.40881	-1460.47717	-539.18933	1288.79919	-1360.21021	-431.39398	1406.4198	-1613.42883	-461.91837	1205.6814	-1684.1084	-479.45026	1094.57129	-1693.42651	-465.2753	944.11017	-1710.13623	-415.01782	827.57196	-1659.36206	-474.15732	824.70453	-1700.76208	-435.91602	741.24438	-1698.33521	-394.89716	1414.90796	-1292.71606	-426.392	1218.84033	-1197.54419	-413.08118	1097.7699	-1184.95447	-372.80209	984.79736	-1175.42651	-286.6134	866.23267	-1222.78052	-333.81909	853.4505	-1176.21899	-280.17969	788.79633	-1183.07239	-335.58066	968.7619	-1549.28845	-333.4678	969.66064	-1329.89502	-494.08423	992.67456	-1519.69055	-484.45874	997.06653	-1351.33459	-343.48251	658.18591	-1614.52698	-292.53043	502.77264	-1586.11804	-317.07956	251.40675	-1586.35999	-312.38834	77.4464	-1552.0636	-353.08276	59.33556	-1507.60657	-168.97932	54.6579	-1544.6897	-414.39615	633.77563	-1289.47693	-428.34186	509.05438	-1316.24097	-511.9411	254.35014	-1333.60144	-549.81842	73.31151	-1389.02295	-589.37152	51.24543	-1436.87708	-400.3428	36.71976	-1379.99829	-441.73825	1704.48096	-1445.94824	NaN	NaN	NaN	NaN	NaN	NaN	NaN	NaN	NaN	NaN	NaN	NaN	NaN	NaN	NaN
162	1.61	-334.11856	1670.02148	-1508.02869	-333.10312	1654.3584	-1376.93616	-466.19473	1612.22437	-1508.43872	-463.74213	1602.53601	-1380.13599	-464.28384	1455.14636	-1449.62451	-503.38007	1127.20313	-1434.24292	-355.01874	1376.99768	-1456.14771	-319.75125	1200.63049	-1460.37634	-531.88409	1287.92798	-1359.83167	-424.72717	1405.36816	-1613.40051	-456.46918	1204.75452	-1683.35706	-475.02567	1093.69812	-1692.24109	-462.37048	943.03925	-1708.41406	-413.2984	826.19171	-1657.27869	-472.40118	823.77197	-1698.64758	-435.19055	739.85968	-1695.78516	-387.54459	1414.17395	-1292.67432	-419.38724	1218.14001	-1197.45325	-406.2052	1097.04541	-1184.86694	-366.00967	984.09241	-1175.42102	-279.79449	865.61792	-1222.96741	-327.37518	852.70831	-1176.11975	-273.5831	787.9292	-1183.18799	-328.16904	968.04553	-1549.04175	-326.95187	968.42096	-1329.8584	-487.05658	992.03412	-1519.59314	-477.3237	996.19885	-1351.24353	-336.54337	657.48572	-1615.14709	-285.54935	502.2323	-1586.44299	-302.36612	250.07208	-1585.65955	-291.599	76.64143	-1550.92798	-331.33289	57.7374	-1505.89709	-147.39668	57.11013	-1543.37378	-408.82364	632.91791	-1289.63159	-423.45331	508.25964	-1316.29871	-509.58173	254.17105	-1333.70923	-549.47107	73.59195	-1388.88232	-589.17566	51.66343	-1436.82275	-400.00327	36.48694	-1379.9469	-434.66727	1703.65454	-1446.25195	NaN	NaN	NaN	NaN	NaN	NaN	NaN	NaN	NaN	NaN	NaN	NaN	NaN	NaN	NaN
163	1.62	-327.0336	1669.10828	-1508.45105	-325.93619	1653.57495	-1377.24634	-459.20969	1611.35095	-1508.60205	-456.54141	1601.73547	-1380.24268	-457.31342	1454.31165	-1449.57336	-496.06818	1126.22424	-1433.88574	-347.91907	1376.10059	-1456.21375	-312.48193	1199.81616	-1460.25684	-524.55188	1287.02661	-1359.44507	-417.91574	1404.25012	-1613.39209	-450.91141	1203.70837	-1682.61853	-470.47134	1092.76709	-1691.01123	-459.26047	941.93365	-1706.6676	-411.33563	824.7309	-1655.05127	-470.4527	822.80493	-1696.54089	-434.09909	738.39325	-1693.17346	-380.09058	1413.3999	-1292.66992	-412.21671	1217.39319	-1197.3623	-399.22415	1096.30688	-1184.81677	-359.09314	983.31274	-1175.50513	-273.0741	864.68805	-1223.10254	-320.51218	851.87164	-1176.39063	-266.97238	787.02612	-1183.46619	-320.59811	967.28943	-1548.80896	-319.40048	967.49567	-1329.55762	-479.05026	991.07892	-1519.60144	-470.22385	995.28912	-1351.21338	-329.51379	656.80548	-1615.78394	-278.56094	501.67389	-1586.77466	-287.95517	249.01694	-1584.93018	-271.29321	76.12857	-1549.5271	-310.3288	56.84573	-1504.18066	-126.41195	59.15107	-1542.44507	-403.27969	631.94019	-1289.79724	-418.40366	507.33401	-1316.50085	-507.13055	253.98547	-1333.81116	-548.96368	73.71022	-1389.00781	-588.93304	52.13263	-1436.74634	-399.75226	36.28746	-1379.90869	-427.60236	1702.78821	-1446.55823	NaN	NaN	NaN	NaN	NaN	NaN	NaN	NaN	NaN	NaN	NaN	NaN	NaN	NaN	NaN
164	1.63	-320.06015	1668.21692	-1508.85413	-318.74612	1652.79199	-1377.64392	-452.33307	1610.53149	-1509.0061	-449.33188	1600.91785	-1380.51465	-450.05359	1453.39929	-1449.60315	-488.68387	1125.26819	-1433.58215	-340.64404	1375.28125	-1456.31873	-305.05167	1199.03979	-1460.2301	-517.22552	1286.16626	-1359.19934	-411.0278	1403.15076	-1613.46216	-445.20709	1202.62976	-1681.89514	-465.74124	1091.79468	-1689.77917	-455.83728	940.79242	-1704.76233	-409.23557	823.29236	-1652.78027	-468.34027	821.7948	-1694.27966	-432.69229	736.87555	-1690.52161	-372.57388	1412.62329	-1292.6814	-404.96289	1216.65295	-1197.28467	-392.22067	1095.47754	-1184.74072	-352.26221	982.42822	-1175.57605	-266.76169	863.53705	-1223.37537	-313.78131	850.92102	-1176.60986	-260.41714	786.02234	-1183.75049	-313.00934	966.5553	-1548.578	-312.20132	966.46008	-1329.40503	-471.55719	990.35608	-1519.72961	-463.11801	994.39081	-1351.28186	-322.52295	656.09711	-1616.33911	-271.62909	501.08997	-1587.09521	-274.02597	248.22461	-1584.11865	-251.75314	76.06187	-1548.09229	-290.0578	56.48021	-1502.34155	-106.14246	61.06149	-1541.7854	-397.54431	631.04364	-1290.09485	-413.25418	506.44379	-1316.65283	-504.39737	253.86035	-1333.96375	-548.44983	74.03276	-1388.96179	-588.68134	52.72931	-1436.65991	-399.4794	36.1437	-1379.91467	-420.49973	1701.98657	-1446.97607	NaN	NaN	NaN	NaN	NaN	NaN	NaN	NaN	NaN	NaN	NaN	NaN	NaN	NaN	NaN
